<svg viewBox="0 0 476 97" fill="none" xmlns="http://www.w3.org/2000/svg">
    <path d="M95.875 56.625C95.8333 57.4583 95.8125 58.3125 95.8125 59.1875C95.8125 60.8125 95.8958 62.6875 96.0625 64.8125C96.2708 66.9375 96.6458 69.1458 97.1875 71.4375C97.7292 73.6875 98.3958 75.6458 99.1875 77.3125C99.9792 78.9375 100.875 80.0208 101.875 80.5625L93.8125 95.625C92.1875 94.875 90.7292 93.9167 89.4375 92.75C88.1875 91.5417 87.0625 90.1875 86.0625 88.6875C85.0625 87.1875 84.1875 85.5833 83.4375 83.875C82.7292 82.1667 82.1042 80.4167 81.5625 78.625C79.1875 81.1667 76.5417 83.5 73.625 85.625C70.7083 87.75 67.5417 89.6042 64.125 91.1875C60.75 92.7292 57.1458 93.9375 53.3125 94.8125C49.5208 95.7292 45.5417 96.25 41.375 96.375C40.8333 96.375 40.3125 96.375 39.8125 96.375C36.3125 96.375 32.8542 95.9792 29.4375 95.1875C26.0208 94.4375 22.7708 93.3125 19.6875 91.8125C16.6458 90.2708 13.8958 88.4792 11.4375 86.4375C9.02083 84.3542 6.95833 82.125 5.25 79.75C3.54167 77.375 2.22917 74.9167 1.3125 72.375C0.4375 69.7917 0 67.2708 0 64.8125C0 60.7292 0.666667 57.2708 2 54.4375C3.375 51.5625 5.125 49.1667 7.25 47.25C9.41667 45.2917 11.8333 43.7292 14.5 42.5625C17.2083 41.3958 19.8958 40.5 22.5625 39.875C25.2708 39.25 27.8125 38.8125 30.1875 38.5625C32.6042 38.3125 34.6042 38.125 36.1875 38L37.0625 37.9375C39.6042 37.7292 42.5208 37.5625 45.8125 37.4375C49.1458 37.2708 52.6458 37.1667 56.3125 37.125C59.9792 37.0417 63.7083 37 67.5 37C71.3333 37 75.0208 37.0208 78.5625 37.0625C78.5625 34.6875 77.75 32.2292 76.125 29.6875C74.5 27.1042 72.2708 24.75 69.4375 22.625C66.6042 20.4583 63.2292 18.6875 59.3125 17.3125C55.4375 15.8958 51.25 15.1875 46.75 15.1875C44.25 15.1875 41.6667 15.4375 39 15.9375C36.375 16.4375 33.6875 17.25 30.9375 18.375C28.2292 19.5 25.4792 20.9583 22.6875 22.75C19.8958 24.5 17.125 26.6458 14.375 29.1875L3.375 19.25C6.375 15.875 9.66667 12.9792 13.25 10.5625C16.875 8.14583 20.5833 6.16667 24.375 4.625C28.2083 3.08333 32.0208 1.95833 35.8125 1.25C39.6458 0.5 43.2917 0.125 46.75 0.125C52.9167 0.125 58.4167 0.770833 63.25 2.0625C68.0833 3.35417 72.3125 5.0625 75.9375 7.1875C79.6042 9.27083 82.6875 11.6458 85.1875 14.3125C87.7292 16.9792 89.7917 19.6875 91.375 22.4375C92.9583 25.1875 94.1042 27.8542 94.8125 30.4375C95.5208 33.0208 95.875 35.2917 95.875 37.25C95.875 37.2917 95.8333 37.3125 95.75 37.3125C95.7083 37.3125 95.6875 37.3333 95.6875 37.375H95.875V56.625ZM20.75 73.375C23.7917 76.125 27.1458 78.1458 30.8125 79.4375C34.4792 80.7292 38.2708 81.375 42.1875 81.375C46.4375 81.375 50.6458 80.6667 54.8125 79.25C58.9792 77.8333 62.7917 75.8333 66.25 73.25C69.75 70.625 72.7292 67.5 75.1875 63.875C77.6458 60.2083 79.2708 56.125 80.0625 51.625C76.5208 51.5833 72.8125 51.5625 68.9375 51.5625C65.1042 51.5625 61.3333 51.6042 57.625 51.6875C53.9167 51.7292 50.3958 51.8125 47.0625 51.9375C43.7292 52.0625 40.8125 52.2292 38.3125 52.4375L37.375 52.5C33.1667 52.875 29.7083 53.3542 27 53.9375C24.2917 54.5208 22.1458 55.2917 20.5625 56.25C18.9792 57.2083 17.875 58.3958 17.25 59.8125C16.625 61.1875 16.3125 62.8542 16.3125 64.8125C16.3125 66.3958 16.7083 67.8958 17.5 69.3125C18.3333 70.6875 19.4167 72.0417 20.75 73.375Z" fill="white" />
    <path d="M108.312 39C108.354 38.2083 108.375 37.3958 108.375 36.5625C108.375 34.8958 108.271 33 108.062 30.875C107.854 28.7083 107.479 26.5 106.938 24.25C106.438 21.9583 105.792 20 105 18.375C104.208 16.7083 103.312 15.6042 102.312 15.0625L110.125 0C111.958 0.958333 113.729 2.375 115.438 4.25C117.146 6.08333 118.646 8.22917 119.938 10.6875C121.271 13.1042 122.312 15.7708 123.062 18.6875C123.854 21.5625 124.25 24.5417 124.25 27.625C124.875 26.9167 125.75 25.8958 126.875 24.5625C128 23.1875 129.354 21.6667 130.938 20C132.521 18.2917 134.292 16.5 136.25 14.625C138.25 12.75 140.438 10.9583 142.812 9.25C145.188 7.54167 147.729 6 150.438 4.625C153.188 3.25 156.062 2.1875 159.062 1.4375C160.271 1.14583 161.708 0.895833 163.375 0.6875C165.083 0.4375 166.896 0.3125 168.812 0.3125C170.771 0.3125 172.812 0.458333 174.938 0.75C177.062 1.04167 179.167 1.58333 181.25 2.375C183.333 3.125 185.354 4.14583 187.312 5.4375C189.271 6.6875 191.062 8.29167 192.688 10.25C194.312 12.2083 195.729 14.5417 196.938 17.25C198.146 19.9167 199.021 23.0625 199.562 26.6875C200.021 29.6875 200.354 32.625 200.562 35.5C200.812 38.3333 200.979 40.875 200.562 43.125C201.146 45.0833 201.188 46.9792 201.188 48.8125V94H184.25V43C184.25 38.0833 183.833 33.9583 183 30.625C182.208 27.25 181.104 24.5417 179.688 22.5C178.312 20.4167 176.667 18.9375 174.75 18.0625C172.875 17.1458 170.854 16.6875 168.688 16.6875C165.979 16.6875 163.208 17.2292 160.375 18.3125C157.583 19.3542 154.792 20.7708 152 22.5625C149.25 24.3542 146.562 26.4167 143.938 28.75C141.312 31.0417 138.833 33.4375 136.5 35.9375C134.208 38.4375 132.104 40.9583 130.188 43.5C128.271 46 126.625 48.3333 125.25 50.5V94.0625H108.312V39Z" fill="white" />
    <path d="M273.188 94.3125C267.354 94.3125 261.708 93.9167 256.25 93.125C250.792 92.3333 245.667 91.1458 240.875 89.5625C236.083 87.9375 231.708 85.8958 227.75 83.4375C223.792 80.9792 220.375 78.0625 217.5 74.6875C214.667 71.2708 212.458 67.375 210.875 63C209.292 58.625 208.5 53.75 208.5 48.375C208.5 43.25 209.292 38.5625 210.875 34.3125C212.458 30.0625 214.667 26.2292 217.5 22.8125C220.375 19.3958 223.792 16.4167 227.75 13.875C231.708 11.2917 236.083 9.14583 240.875 7.4375C245.667 5.72917 250.792 4.45833 256.25 3.625C261.708 2.75 267.354 2.3125 273.188 2.3125L273.125 17.6875C265.333 17.7292 258.438 18.6458 252.438 20.4375C246.479 22.1875 241.479 24.5 237.438 27.375C233.396 30.2083 230.312 33.4583 228.188 37.125C226.104 40.75 225.021 44.4792 224.938 48.3125C224.938 48.4792 224.938 48.6458 224.938 48.8125C224.938 52.4792 225.896 56.1042 227.812 59.6875C229.729 63.2708 232.688 66.5 236.688 69.375C240.729 72.25 245.771 74.5833 251.812 76.375C257.896 78.1667 265 79.0833 273.125 79.125L273.188 94.3125Z" fill="white" />
    <path d="M280.438 19.625V2.4375H297V19.625H280.438ZM297 26.125V94.0625H280.438V26.125H297Z" fill="white" />
    <path d="M400.75 56.625C400.708 57.4583 400.688 58.3125 400.688 59.1875C400.688 60.8125 400.771 62.6875 400.938 64.8125C401.146 66.9375 401.521 69.1458 402.062 71.4375C402.604 73.6875 403.271 75.6458 404.062 77.3125C404.854 78.9375 405.75 80.0208 406.75 80.5625L398.688 95.625C397.062 94.875 395.604 93.9167 394.312 92.75C393.062 91.5417 391.938 90.1875 390.938 88.6875C389.938 87.1875 389.062 85.5833 388.312 83.875C387.604 82.1667 386.979 80.4167 386.438 78.625C384.062 81.1667 381.417 83.5 378.5 85.625C375.583 87.75 372.417 89.6042 369 91.1875C365.625 92.7292 362.021 93.9375 358.188 94.8125C354.396 95.7292 350.417 96.25 346.25 96.375C345.708 96.375 345.188 96.375 344.688 96.375C341.188 96.375 337.729 95.9792 334.312 95.1875C330.896 94.4375 327.646 93.3125 324.562 91.8125C321.521 90.2708 318.771 88.4792 316.312 86.4375C313.896 84.3542 311.833 82.125 310.125 79.75C308.417 77.375 307.104 74.9167 306.188 72.375C305.312 69.7917 304.875 67.2708 304.875 64.8125C304.875 60.7292 305.542 57.2708 306.875 54.4375C308.25 51.5625 310 49.1667 312.125 47.25C314.292 45.2917 316.708 43.7292 319.375 42.5625C322.083 41.3958 324.771 40.5 327.438 39.875C330.146 39.25 332.688 38.8125 335.062 38.5625C337.479 38.3125 339.479 38.125 341.062 38L341.938 37.9375C344.479 37.7292 347.396 37.5625 350.688 37.4375C354.021 37.2708 357.521 37.1667 361.188 37.125C364.854 37.0417 368.583 37 372.375 37C376.208 37 379.896 37.0208 383.438 37.0625C383.438 34.6875 382.625 32.2292 381 29.6875C379.375 27.1042 377.146 24.75 374.312 22.625C371.479 20.4583 368.104 18.6875 364.188 17.3125C360.312 15.8958 356.125 15.1875 351.625 15.1875C349.125 15.1875 346.542 15.4375 343.875 15.9375C341.25 16.4375 338.562 17.25 335.812 18.375C333.104 19.5 330.354 20.9583 327.562 22.75C324.771 24.5 322 26.6458 319.25 29.1875L308.25 19.25C311.25 15.875 314.542 12.9792 318.125 10.5625C321.75 8.14583 325.458 6.16667 329.25 4.625C333.083 3.08333 336.896 1.95833 340.688 1.25C344.521 0.5 348.167 0.125 351.625 0.125C357.792 0.125 363.292 0.770833 368.125 2.0625C372.958 3.35417 377.188 5.0625 380.812 7.1875C384.479 9.27083 387.562 11.6458 390.062 14.3125C392.604 16.9792 394.667 19.6875 396.25 22.4375C397.833 25.1875 398.979 27.8542 399.688 30.4375C400.396 33.0208 400.75 35.2917 400.75 37.25C400.75 37.2917 400.708 37.3125 400.625 37.3125C400.583 37.3125 400.562 37.3333 400.562 37.375H400.75V56.625ZM325.625 73.375C328.667 76.125 332.021 78.1458 335.688 79.4375C339.354 80.7292 343.146 81.375 347.062 81.375C351.312 81.375 355.521 80.6667 359.688 79.25C363.854 77.8333 367.667 75.8333 371.125 73.25C374.625 70.625 377.604 67.5 380.062 63.875C382.521 60.2083 384.146 56.125 384.938 51.625C381.396 51.5833 377.688 51.5625 373.812 51.5625C369.979 51.5625 366.208 51.6042 362.5 51.6875C358.792 51.7292 355.271 51.8125 351.938 51.9375C348.604 52.0625 345.688 52.2292 343.188 52.4375L342.25 52.5C338.042 52.875 334.583 53.3542 331.875 53.9375C329.167 54.5208 327.021 55.2917 325.438 56.25C323.854 57.2083 322.75 58.3958 322.125 59.8125C321.5 61.1875 321.188 62.8542 321.188 64.8125C321.188 66.3958 321.583 67.8958 322.375 69.3125C323.208 70.6875 324.292 72.0417 325.625 73.375Z" fill="white" />
    <path d="M475.312 79.625V94.0625H415.562L409 79.6875L443.938 2.4375H462.438L427.5 79.6875C435.542 79.6875 442.896 79.6667 449.562 79.625H475.312Z" fill="white" />
</svg>