<svg viewBox="0 0 574 97" fill="none" xmlns="http://www.w3.org/2000/svg"> <path d="M122.375 72.5625C119.583 75.9375 116.167 79.0833 112.125 82C108.125 84.875 103.688 87.375 98.8125 89.5C93.9792 91.625 88.8125 93.2708 83.3125 94.4375C77.8125 95.6458 72.1875 96.25 66.4375 96.25C60.6042 96.25 54.8958 95.6667 49.3125 94.5C43.7708 93.3333 38.5417 91.6875 33.625 89.5625C28.7083 87.4375 24.1875 84.8958 20.0625 81.9375C15.9375 78.9792 12.3958 75.7292 9.4375 72.1875C6.47917 68.6042 4.16667 64.7917 2.5 60.75C0.833333 56.6667 0 52.4583 0 48.125C0 43.7917 0.833333 39.6042 2.5 35.5625C4.16667 31.4792 6.47917 27.6667 9.4375 24.125C12.3958 20.5417 15.9375 17.2708 20.0625 14.3125C24.1875 11.3542 28.7083 8.8125 33.625 6.6875C38.5417 4.5625 43.7708 2.91667 49.3125 1.75C54.8958 0.583333 60.6042 0 66.4375 0C72.1875 0 77.8125 0.604167 83.3125 1.8125C88.8125 2.97917 93.9792 4.625 98.8125 6.75C103.688 8.83333 108.125 11.3333 112.125 14.25C116.167 17.125 119.583 20.25 122.375 23.625L108.125 32.3125C107.75 31.8542 107.104 31.125 106.188 30.125C105.312 29.0833 104.104 27.9375 102.562 26.6875C101.021 25.3958 99.1458 24.0833 96.9375 22.75C94.7708 21.375 92.2083 20.1458 89.25 19.0625C86.3333 17.9375 83 17.0208 79.25 16.3125C75.5417 15.5625 71.3958 15.1875 66.8125 15.1875C58.8958 15.1875 51.9375 16.1458 45.9375 18.0625C39.9375 19.9375 34.8958 22.4167 30.8125 25.5C26.7708 28.5833 23.7083 32.1042 21.625 36.0625C19.5417 39.9792 18.4792 43 18.4375 45.125C18.3958 47.25 18.375 48.375 18.375 48.5C18.375 52.5 19.3333 56.4375 21.25 60.3125C23.2083 64.1875 26.1875 67.6667 30.1875 70.75C34.1875 73.8333 39.2292 76.3333 45.3125 78.25C51.4375 80.125 58.6042 81.0625 66.8125 81.0625C71.4375 81.0625 75.625 80.6875 79.375 79.9375C83.125 79.1875 86.4792 78.25 89.4375 77.125C92.3958 76 94.9583 74.75 97.125 73.375C99.3333 71.9583 101.188 70.625 102.688 69.375C104.229 68.125 105.438 67 106.312 66C107.188 65 107.792 64.3125 108.125 63.9375L122.375 72.5625ZM161.938 81.8125C163.771 81.8125 165.646 81.5625 167.562 81.0625C169.521 80.5208 171.167 79.7917 172.5 78.875L179.438 91.3125C176.604 92.9792 173.667 94.1667 170.625 94.875C167.583 95.625 164.479 96 161.312 96C158.979 96 156.562 95.5833 154.062 94.75C151.562 93.9583 149.208 92.7292 147 91.0625C144.833 89.3542 142.917 87.2292 141.25 84.6875C139.583 82.1458 138.521 79.6042 138.062 77.0625C137.604 74.4792 137.375 72.25 137.375 70.375C137.375 68.3333 137.625 65.6458 138.125 62.3125C138.625 58.9792 140.062 54.625 142.438 49.25C143.521 46.875 144.667 44.2708 145.875 41.4375C147.125 38.6042 148.396 35.7292 149.688 32.8125C150.979 29.8542 152.25 26.9375 153.5 24.0625C154.792 21.1458 156 18.4792 157.125 16.0625H138.438V28.8125H124.688V2.3125H175.625V15.375L162.625 41.125C159.5 47.3333 157.125 52.9583 155.5 58C153.875 63 153.042 66.4167 153 68.25C152.958 70.0833 152.938 71.0625 152.938 71.1875C152.938 74.5208 153.667 77.125 155.125 79C156.583 80.875 158.854 81.8125 161.938 81.8125ZM200.312 17.3125V40.5H221.188V55.5625H200.312V78.75H225.625V93.875H184.375V2.25L225.625 2.1875V17.3125H200.312ZM326.5 56.5C326.458 57.3333 326.438 58.1875 326.438 59.0625C326.438 60.6875 326.521 62.5625 326.688 64.6875C326.896 66.8125 327.271 69.0208 327.812 71.3125C328.354 73.5625 329.021 75.5208 329.812 77.1875C330.604 78.8125 331.5 79.8958 332.5 80.4375L324.438 95.5C322.812 94.75 321.354 93.7917 320.062 92.625C318.812 91.4167 317.688 90.0625 316.688 88.5625C315.688 87.0625 314.812 85.4583 314.062 83.75C313.354 82.0417 312.729 80.2917 312.188 78.5C309.812 81.0417 307.167 83.375 304.25 85.5C301.333 87.625 298.167 89.4792 294.75 91.0625C291.375 92.6042 287.771 93.8125 283.938 94.6875C280.146 95.6042 276.167 96.125 272 96.25C271.458 96.25 270.938 96.25 270.438 96.25C266.938 96.25 263.479 95.8542 260.062 95.0625C256.646 94.3125 253.396 93.1875 250.312 91.6875C247.271 90.1458 244.521 88.3542 242.062 86.3125C239.646 84.2292 237.583 82 235.875 79.625C234.167 77.25 232.854 74.7917 231.938 72.25C231.062 69.6667 230.625 67.1458 230.625 64.6875C230.625 60.6042 231.292 57.1458 232.625 54.3125C234 51.4375 235.75 49.0417 237.875 47.125C240.042 45.1667 242.458 43.6042 245.125 42.4375C247.833 41.2708 250.521 40.375 253.188 39.75C255.896 39.125 258.438 38.6875 260.812 38.4375C263.229 38.1875 265.229 38 266.812 37.875L267.688 37.8125C270.229 37.6042 273.146 37.4375 276.438 37.3125C279.771 37.1458 283.271 37.0417 286.938 37C290.604 36.9167 294.333 36.875 298.125 36.875C301.958 36.875 305.646 36.8958 309.188 36.9375C309.188 34.5625 308.375 32.1042 306.75 29.5625C305.125 26.9792 302.896 24.625 300.062 22.5C297.229 20.3333 293.854 18.5625 289.938 17.1875C286.062 15.7708 281.875 15.0625 277.375 15.0625C274.875 15.0625 272.292 15.3125 269.625 15.8125C267 16.3125 264.312 17.125 261.562 18.25C258.854 19.375 256.104 20.8333 253.312 22.625C250.521 24.375 247.75 26.5208 245 29.0625L234 19.125C237 15.75 240.292 12.8542 243.875 10.4375C247.5 8.02083 251.208 6.04167 255 4.5C258.833 2.95833 262.646 1.83333 266.438 1.125C270.271 0.375 273.917 0 277.375 0C283.542 0 289.042 0.645833 293.875 1.9375C298.708 3.22917 302.938 4.9375 306.562 7.0625C310.229 9.14583 313.312 11.5208 315.812 14.1875C318.354 16.8542 320.417 19.5625 322 22.3125C323.583 25.0625 324.729 27.7292 325.438 30.3125C326.146 32.8958 326.5 35.1667 326.5 37.125C326.5 37.1667 326.458 37.1875 326.375 37.1875C326.333 37.1875 326.312 37.2083 326.312 37.25H326.5V56.5ZM251.375 73.25C254.417 76 257.771 78.0208 261.438 79.3125C265.104 80.6042 268.896 81.25 272.812 81.25C277.062 81.25 281.271 80.5417 285.438 79.125C289.604 77.7083 293.417 75.7083 296.875 73.125C300.375 70.5 303.354 67.375 305.812 63.75C308.271 60.0833 309.896 56 310.688 51.5C307.146 51.4583 303.438 51.4375 299.562 51.4375C295.729 51.4375 291.958 51.4792 288.25 51.5625C284.542 51.6042 281.021 51.6875 277.688 51.8125C274.354 51.9375 271.438 52.1042 268.938 52.3125L268 52.375C263.792 52.75 260.333 53.2292 257.625 53.8125C254.917 54.3958 252.771 55.1667 251.188 56.125C249.604 57.0833 248.5 58.2708 247.875 59.6875C247.25 61.0625 246.938 62.7292 246.938 64.6875C246.938 66.2708 247.333 67.7708 248.125 69.1875C248.958 70.5625 250.042 71.9167 251.375 73.25ZM374.375 2.3125V16.75H358.375V93.9375H341.938V16.75H326V2.3125H374.375ZM413.25 1.8125C416.625 1.8125 420 2.27083 423.375 3.1875C426.75 4.10417 429.979 5.45833 433.062 7.25C436.188 9.04167 439.083 11.2708 441.75 13.9375C444.417 16.5625 446.729 19.5833 448.688 23C450.646 26.4167 452.188 30.25 453.312 34.5C454.438 38.7083 455 43.2708 455 48.1875C455 53.1875 454.438 57.8125 453.312 62.0625C452.188 66.3125 450.646 70.1458 448.688 73.5625C446.729 76.9792 444.417 80 441.75 82.625C439.083 85.25 436.188 87.4375 433.062 89.1875C429.979 90.9375 426.75 92.2708 423.375 93.1875C420 94.0625 416.625 94.5 413.25 94.5C409.875 94.5 406.479 94.0625 403.062 93.1875C399.688 92.2708 396.438 90.9375 393.312 89.1875C390.229 87.4375 387.354 85.25 384.688 82.625C382.021 80 379.708 76.9792 377.75 73.5625C375.792 70.1458 374.25 66.3125 373.125 62.0625C372 57.8125 371.438 53.1875 371.438 48.1875C371.438 43.2292 372 38.6458 373.125 34.4375C374.25 30.2292 375.792 26.4167 377.75 23C379.708 19.5833 382.021 16.5625 384.688 13.9375C387.354 11.2708 390.229 9.04167 393.312 7.25C396.438 5.45833 399.688 4.10417 403.062 3.1875C406.479 2.27083 409.875 1.8125 413.25 1.8125ZM413.25 81.625C416.542 81.5833 419.667 80.8542 422.625 79.4375C425.583 77.9792 428.167 75.8542 430.375 73.0625C432.625 70.2292 434.396 66.75 435.688 62.625C437.021 58.4583 437.688 53.6458 437.688 48.1875C437.688 42.6875 437.021 37.875 435.688 33.75C434.396 29.5833 432.625 26.1042 430.375 23.3125C428.167 20.5208 425.583 18.4167 422.625 17C419.667 15.5417 416.542 14.7917 413.25 14.75C409.958 14.7917 406.812 15.5417 403.812 17C400.854 18.4167 398.25 20.5208 396 23.3125C393.75 26.1042 391.958 29.5833 390.625 33.75C389.292 37.875 388.625 42.6875 388.625 48.1875C388.625 53.6458 389.292 58.4583 390.625 62.625C391.958 66.75 393.75 70.2292 396 73.0625C398.25 75.8542 400.854 77.9792 403.812 79.4375C406.812 80.8542 409.958 81.5833 413.25 81.625ZM493.188 81.8125C495.021 81.8125 496.896 81.5625 498.812 81.0625C500.771 80.5208 502.417 79.7917 503.75 78.875L510.688 91.3125C507.854 92.9792 504.917 94.1667 501.875 94.875C498.833 95.625 495.729 96 492.562 96C490.229 96 487.812 95.5833 485.312 94.75C482.812 93.9583 480.458 92.7292 478.25 91.0625C476.083 89.3542 474.167 87.2292 472.5 84.6875C470.833 82.1458 469.771 79.6042 469.312 77.0625C468.854 74.4792 468.625 72.25 468.625 70.375C468.625 68.3333 468.875 65.6458 469.375 62.3125C469.875 58.9792 471.312 54.625 473.688 49.25C474.771 46.875 475.917 44.2708 477.125 41.4375C478.375 38.6042 479.646 35.7292 480.938 32.8125C482.229 29.8542 483.5 26.9375 484.75 24.0625C486.042 21.1458 487.25 18.4792 488.375 16.0625H469.688V28.8125H455.938V2.3125H506.875V15.375L493.875 41.125C490.75 47.3333 488.375 52.9583 486.75 58C485.125 63 484.292 66.4167 484.25 68.25C484.208 70.0833 484.188 71.0625 484.188 71.1875C484.188 74.5208 484.917 77.125 486.375 79C487.833 80.875 490.104 81.8125 493.188 81.8125ZM527.938 23.625C527.938 26.125 528.583 28.2708 529.875 30.0625C531.167 31.8542 532.875 33.4583 535 34.875C537.125 36.25 539.542 37.5 542.25 38.625C545 39.75 547.771 40.9167 550.562 42.125C553.396 43.2917 556.167 44.5625 558.875 45.9375C561.625 47.3125 564.062 48.9375 566.188 50.8125C568.312 52.6875 570.021 54.8958 571.312 57.4375C572.604 59.9375 573.25 62.9167 573.25 66.375C573.25 70.125 572.542 73.7708 571.125 77.3125C569.708 80.8125 567.667 83.9375 565 86.6875C562.375 89.4375 559.188 91.6458 555.438 93.3125C551.688 94.9792 547.458 95.8125 542.75 95.8125C538.958 95.8125 535.417 95.3125 532.125 94.3125C528.875 93.3125 525.938 91.9792 523.312 90.3125C520.688 88.6458 518.375 86.75 516.375 84.625C514.417 82.5 512.812 80.3125 511.562 78.0625L522.812 67.0625C523.521 68.3542 524.604 69.7917 526.062 71.375C527.521 72.9167 529.146 74.375 530.938 75.75C532.771 77.125 534.667 78.2917 536.625 79.25C538.583 80.1667 540.396 80.625 542.062 80.625C544.479 80.625 546.625 80.2292 548.5 79.4375C550.375 78.6458 551.938 77.5833 553.188 76.25C554.479 74.875 555.438 73.3125 556.062 71.5625C556.729 69.8125 557.062 68 557.062 66.125C557.062 64.2917 556.417 62.7083 555.125 61.375C553.875 60.0417 552.208 58.8333 550.125 57.75C548.042 56.6667 545.667 55.625 543 54.625C540.333 53.625 537.604 52.5417 534.812 51.375C532.062 50.2083 529.354 48.875 526.688 47.375C524.021 45.8333 521.646 44 519.562 41.875C517.479 39.7083 515.792 37.1875 514.5 34.3125C513.25 31.3958 512.625 27.9792 512.625 24.0625C512.625 20.3125 513.5 16.9792 515.25 14.0625C517.042 11.1458 519.396 8.66667 522.312 6.625C525.229 4.58333 528.583 3.04167 532.375 2C536.167 0.916667 540.083 0.375 544.125 0.375C546.875 0.375 549.646 0.833333 552.438 1.75C555.271 2.625 557.958 3.83333 560.5 5.375C563.042 6.875 565.354 8.64583 567.438 10.6875C569.562 12.6875 571.25 14.8125 572.5 17.0625L560.562 26.3125C559.812 25.0208 558.75 23.7083 557.375 22.375C556.042 21 554.521 19.7708 552.812 18.6875C551.146 17.5625 549.396 16.6458 547.562 15.9375C545.729 15.2292 543.958 14.875 542.25 14.875C537.333 14.875 533.708 15.5417 531.375 16.875C529.083 18.2083 527.938 20.4583 527.938 23.625Z" fill="url(#paint0_linear_2209_21)"></path> <defs> <linearGradient id="paint0_linear_2209_21" x1="-1.375" y1="-0.816739" x2="624.044" y2="99.8269" gradientUnits="userSpaceOnUse"> <stop stop-color="#00DDFF"></stop> <stop offset="0.504808" stop-color="#0086E6"></stop> <stop offset="1" stop-color="#0998FF"></stop> </linearGradient> </defs> </svg>