<svg xmlns="http://www.w3.org/2000/svg" viewBox="0 0 1294 189" fill="none">
  <path d="M398.926 4.63867V183.716H364.746C349.609 179.565 334.88 175.008 320.557 170.044C306.315 165.08 292.806 159.383 280.029 152.954C267.253 146.525 255.452 139.16 244.629 130.859C233.805 122.477 224.284 112.874 216.064 102.051V183.716H181.885C179.932 183.228 176.676 182.332 172.119 181.03C167.562 179.728 162.069 178.019 155.64 175.903C149.211 173.787 142.049 171.305 134.155 168.457C126.261 165.527 118.042 162.231 109.497 158.569C101.034 154.826 92.4479 150.675 83.7402 146.118C75.0326 141.561 66.6097 136.597 58.4717 131.226C50.415 125.773 42.806 119.954 35.6445 113.77C28.5645 107.503 22.3796 100.83 17.0898 93.75C11.8001 86.5885 7.60905 79.0202 4.5166 71.0449C1.50553 62.9883 0 54.5247 0 45.6543C0 38.737 1.01725 32.8369 3.05176 27.9541C5.08626 22.9899 7.69043 18.8395 10.8643 15.5029C14.0381 12.085 17.5374 9.35872 21.3623 7.32422C25.2686 5.28971 29.012 3.74349 32.5928 2.68555C36.2549 1.6276 39.5915 0.935872 42.6025 0.610352C45.6136 0.203451 47.8109 0 49.1943 0V28.9307C45.7764 29.012 42.7653 29.9072 40.1611 31.6162C37.557 33.3252 35.6445 35.6038 34.4238 38.4521C33.2031 41.2191 32.5928 44.3522 32.5928 47.8516C32.5928 48.2585 32.6335 49.6012 32.7148 51.8799C32.7962 54.1585 33.8542 57.7393 35.8887 62.6221C37.9232 67.5049 40.9749 72.6725 45.0439 78.125C49.1943 83.5775 54.5654 89.1927 61.1572 94.9707C67.8304 100.667 75.8057 106.445 85.083 112.305C94.3604 118.164 105.184 123.901 117.554 129.517C129.924 135.132 141.602 139.974 152.588 144.043C163.656 148.112 173.584 151.408 182.373 153.931L182.251 38.0859H220.581C221.232 45.0846 222.371 51.3102 223.999 56.7627C226.359 64.4124 230.021 71.6146 234.985 78.3691C239.95 85.0423 245.646 91.3086 252.075 97.168C258.586 102.946 265.666 108.317 273.315 113.281C280.965 118.164 288.656 122.64 296.387 126.709C304.199 130.697 311.808 134.277 319.214 137.451C326.701 140.625 333.537 143.351 339.722 145.63C345.907 147.909 351.196 149.74 355.591 151.123C360.067 152.507 363.159 153.442 364.868 153.931V4.63867H398.926Z" fill="url(#walletLogoGradient)"/>
  <path d="M694.214 4.76074V183.716H660.889V166.382C660.889 157.756 660.197 149.211 658.813 140.747C657.511 132.284 655.477 123.983 652.71 115.845C652.14 114.054 651.204 111.45 649.902 108.032C648.6 104.533 646.851 100.586 644.653 96.1914C642.456 91.7155 639.73 86.9548 636.475 81.9092C633.219 76.7822 629.272 71.7367 624.634 66.7725C620.076 61.7269 614.787 56.8848 608.765 52.2461C602.743 47.6074 595.825 43.5384 588.013 40.0391C580.2 36.4583 571.452 33.61 561.768 31.4941C552.165 29.3783 541.463 28.3203 529.663 28.3203C519.409 28.3203 510.254 29.2155 502.197 31.0059C494.222 32.7148 487.223 35.1156 481.201 38.208C475.179 41.2191 470.052 44.7998 465.82 48.9502C461.67 53.1006 458.293 57.6172 455.688 62.5C453.084 67.3828 451.131 72.5098 449.829 77.8809C448.608 83.252 447.957 88.6637 447.876 94.1162C447.876 94.4417 447.876 94.7266 447.876 94.9707C447.876 99.6908 448.486 104.574 449.707 109.619C450.928 114.665 452.881 119.629 455.566 124.512C458.252 129.395 461.629 133.993 465.698 138.306C469.767 142.619 474.569 146.403 480.103 149.658C485.636 152.832 491.903 155.355 498.901 157.227C505.9 159.098 513.631 160.034 522.095 160.034C531.616 160.034 541.016 158.691 550.293 156.006C559.652 153.32 568.604 149.211 577.148 143.677C585.775 138.062 593.872 130.941 601.44 122.314C609.009 113.688 615.763 103.475 621.704 91.6748L646.973 104.37C633.057 132.039 615.519 152.954 594.36 167.114C573.201 181.193 548.991 188.232 521.729 188.232C519.45 188.232 516.561 188.232 513.062 188.232C509.562 188.232 505.615 187.988 501.221 187.5C496.826 187.093 492.065 186.32 486.938 185.181C481.812 184.041 476.481 182.332 470.947 180.054C465.413 177.775 459.757 174.845 453.979 171.265C448.283 167.603 442.668 163.045 437.134 157.593C428.263 148.885 421.59 139.201 417.114 128.54C412.72 117.879 410.522 106.812 410.522 95.3369C410.522 94.7673 410.522 94.1569 410.522 93.5059C410.685 86.0189 411.865 78.5319 414.062 71.0449C416.341 63.4766 419.637 56.2337 423.95 49.3164C428.345 42.3991 433.797 35.9701 440.308 30.0293C446.818 24.0072 454.468 18.7988 463.257 14.4043C472.046 10.0098 481.934 6.55111 492.92 4.02832C503.988 1.50553 516.235 0.244141 529.663 0.244141C541.545 0.244141 552.531 1.18001 562.622 3.05176C572.795 4.84212 582.153 7.32422 590.698 10.498C599.243 13.6719 607.056 17.4154 614.136 21.7285C621.216 26.0417 627.645 30.721 633.423 35.7666C639.201 40.7308 644.328 45.9391 648.804 51.3916C653.361 56.7627 657.389 62.1745 660.889 67.627V4.76074H694.214Z" fill="url(#walletLogoGradient)"/>
  <path d="M833.618 155.518V183.716H716.919L704.102 155.64L772.339 4.76074H808.472L740.234 155.64C755.941 155.64 770.304 155.599 783.325 155.518H833.618Z" fill="url(#walletLogoGradient)"/>
  <path d="M970.825 155.518V183.716H854.126L841.309 155.64L909.546 4.76074H945.679L877.441 155.64C893.148 155.64 907.511 155.599 920.532 155.518H970.825Z" fill="url(#walletLogoGradient)"/>
  <path d="M1149.54 146.729C1143.68 154.134 1137.25 160.482 1130.25 165.771C1123.33 170.98 1116.17 175.252 1108.76 178.589C1101.36 181.925 1093.87 184.367 1086.3 185.913C1078.74 187.459 1071.41 188.232 1064.33 188.232C1052.29 188.232 1041.54 186.686 1032.1 183.594C1022.66 180.501 1014.36 176.554 1007.2 171.753C1000.04 166.951 993.937 161.662 988.892 155.884C983.846 150.106 979.696 144.531 976.44 139.16C973.185 133.708 970.703 128.866 968.994 124.634C967.285 120.402 966.227 117.432 965.82 115.723C961.426 115.641 958.415 115.601 956.787 115.601C955.16 115.519 954.102 115.438 953.613 115.356L954.346 87.0361C954.427 87.0361 954.59 87.0361 954.834 87.0361C955.16 87.0361 955.648 87.0768 956.299 87.1582C957.031 87.1582 958.008 87.1989 959.229 87.2803C960.531 87.2803 962.158 87.2803 964.111 87.2803C965.007 80.1188 966.838 73.0387 969.604 66.04C972.371 59.0413 975.993 52.3682 980.469 46.0205C985.026 39.6729 990.356 33.7728 996.46 28.3203C1002.56 22.8678 1009.32 18.1071 1016.72 14.0381C1024.13 9.96908 1032.15 6.75456 1040.77 4.39453C1049.4 1.95312 1058.51 0.610352 1068.12 0.366211C1069.17 0.366211 1070.23 0.366211 1071.29 0.366211C1078.21 0.366211 1085.04 1.13932 1091.8 2.68555C1098.55 4.15039 1105.02 6.38835 1111.21 9.39941C1117.39 12.3291 1122.97 15.8285 1127.93 19.8975C1132.98 23.8851 1137.25 28.1982 1140.75 32.8369C1144.25 37.4756 1146.93 42.3177 1148.8 47.3633C1150.76 52.3275 1151.73 57.2103 1151.73 62.0117C1151.73 69.9056 1150.47 76.7008 1147.95 82.3975C1145.43 88.0127 1142.13 92.7327 1138.06 96.5576C1134.07 100.382 1129.56 103.434 1124.51 105.713C1119.47 107.992 1114.38 109.782 1109.25 111.084C1104.21 112.305 1099.41 113.118 1094.85 113.525C1090.29 113.932 1086.47 114.217 1083.37 114.38L1080.2 114.502C1075.24 114.665 1069.5 114.868 1062.99 115.112C1056.56 115.275 1049.76 115.479 1042.6 115.723C1035.44 115.885 1029.05 116.007 1023.44 116.089C1017.9 116.089 1013.35 116.089 1009.77 116.089C1006.18 116.089 1002.64 116.089 999.146 116.089C1001.75 122.599 1005.49 128.499 1010.38 133.789C1015.34 139.079 1020.91 143.636 1027.1 147.461C1033.37 151.204 1040 154.093 1047 156.128C1054 158.162 1060.91 159.18 1067.75 159.18C1073.04 159.18 1078.33 158.569 1083.62 157.349C1088.99 156.128 1094.28 154.256 1099.49 151.733C1104.7 149.129 1109.74 145.793 1114.62 141.724C1119.51 137.573 1124.15 132.65 1128.54 126.953L1149.54 146.729ZM1111.08 45.166C1105.22 39.4694 1098.75 35.319 1091.67 32.7148C1084.68 30.1107 1077.35 28.8086 1069.7 28.8086C1061.48 28.8086 1053.3 30.2327 1045.17 33.0811C1037.11 35.9294 1029.7 39.9577 1022.95 45.166C1016.28 50.293 1010.54 56.4779 1005.74 63.7207C1001.02 70.8822 997.843 78.8574 996.216 87.6465C1000.85 87.7279 1005.49 87.7686 1010.13 87.7686C1012.49 87.7686 1015.99 87.7686 1020.63 87.7686C1025.35 87.6872 1031.05 87.6058 1037.72 87.5244C1044.47 87.3617 1050.86 87.1989 1056.88 87.0361C1062.91 86.792 1068.36 86.5072 1073.24 86.1816L1075.07 86.0596C1083.29 85.4899 1090.21 84.6354 1095.83 83.4961C1101.44 82.3568 1105.96 80.8512 1109.38 78.9795C1112.79 77.0264 1115.23 74.6663 1116.7 71.8994C1118.25 69.0511 1119.02 65.7552 1119.02 62.0117C1119.02 55.9896 1116.37 50.3743 1111.08 45.166Z" fill="url(#walletLogoGradient)"/>
  <path d="M1280.76 32.959H1246.7L1178.59 183.716H1144.29L1212.4 32.959H1169.07L1181.88 4.76074H1293.58L1280.76 32.959Z" fill="url(#walletLogoGradient)"/>
  <defs>
    <linearGradient id="walletLogoGradient" x1="14.7891" y1="7.21485" x2="1294.29" y2="183.715" gradientUnits="userSpaceOnUse">
      <stop stop-color="#98EC61"/>
      <stop offset="0.5" stop-color="#61EC6D"/>
      <stop offset="1" stop-color="#98EC61"/>
    </linearGradient>
  </defs>
</svg>
