<svg xmlns="http://www.w3.org/2000/svg" viewBox="0 0 821 157" style="display: none;">
    <path d="M128.879 0C137.042 0 144.669 0.772667 151.759 2.318C158.849 3.8039 165.314 5.88416 171.153 8.55877C177.052 11.174 182.295 14.2943 186.883 17.9199C191.471 21.5455 195.344 25.498 198.502 29.7774C201.66 33.9974 204.043 38.455 205.652 43.1505C207.321 47.7865 208.155 52.4819 208.155 57.2368C208.155 62.1105 207.41 66.9843 205.92 71.858C204.49 76.7318 202.226 81.3975 199.128 85.8552C196.089 90.2535 192.186 94.3843 187.42 98.2476C182.713 102.051 177.022 105.35 170.349 108.144C163.735 110.937 156.138 113.136 147.558 114.741C139.038 116.346 129.445 117.148 118.78 117.148C106.029 117.148 94.6185 115.959 84.5489 113.582C74.5389 111.145 65.6907 107.995 58.0045 104.132C50.3778 100.209 43.7938 95.8107 38.2526 90.937C32.7709 86.0632 28.1234 81.13 24.31 76.1374V157H0V3.38785H24.31V13.9972C24.31 20.7729 24.9952 26.9245 26.3657 32.452C27.7361 37.9796 29.2555 42.7344 30.9238 46.7166C32.6517 50.6988 34.2307 53.849 35.6607 56.167C37.0907 58.4255 37.8951 59.6737 38.0738 59.9114C54.5784 84.3396 81.4803 96.5537 118.78 96.5537C129.385 96.5537 138.621 95.4541 146.486 93.255C154.351 91.0558 160.875 88.1435 166.059 84.5179C171.302 80.8329 175.205 76.6426 177.767 71.9472C180.329 67.1923 181.61 62.2889 181.61 57.2368C181.61 53.2546 180.657 49.1238 178.75 44.8444C176.903 40.5056 173.894 36.5531 169.723 32.9869C165.553 29.3614 160.101 26.3896 153.368 24.0716C146.694 21.7536 138.531 20.5945 128.879 20.5945C111.421 20.5945 96.2868 23.9527 83.4764 30.6689C70.6659 37.3258 60.1495 47.3704 51.927 60.803L34.3201 50.0153C36.6438 46.2114 39.3846 42.3481 42.5426 38.4253C45.7005 34.4431 49.3053 30.6095 53.357 26.9245C57.4086 23.18 61.9668 19.703 67.0313 16.4935C72.1555 13.2245 77.816 10.3716 84.0126 7.9347C90.2689 5.49782 97.0912 3.56616 104.48 2.13969C111.927 0.713231 120.061 0 128.879 0Z" fill="url(#paint0_linear_1346_45)"></path> <path d="M351.691 81.9324C351.632 82.824 351.602 83.7452 351.602 84.6962C351.602 87.3114 351.751 90.2237 352.049 93.4333C352.347 96.5834 352.883 99.7929 353.657 103.062C354.432 106.271 355.385 109.065 356.517 111.442C357.65 113.76 358.931 115.306 360.361 116.078L348.206 137.564C345.643 136.197 343.171 134.236 340.787 131.68C338.404 129.065 336.259 126.064 334.352 122.676C332.505 119.288 331.016 115.603 329.884 111.621C328.752 107.579 328.126 103.419 328.007 99.1391C326.934 100.328 325.564 101.933 323.895 103.953C322.227 105.915 320.261 108.084 317.997 110.462C315.733 112.839 313.2 115.306 310.4 117.861C307.659 120.358 304.65 122.735 301.373 124.994C298.096 127.252 294.58 129.303 290.827 131.145C287.133 132.988 283.23 134.414 279.119 135.425C277.391 135.9 275.305 136.287 272.862 136.584C270.479 136.881 267.887 137.03 265.087 137.03C262.286 137.03 259.367 136.822 256.328 136.405C253.289 135.989 250.28 135.217 247.301 134.087C244.322 133.018 241.432 131.591 238.632 129.808C235.891 127.966 233.358 125.677 231.035 122.943C228.711 120.15 226.685 116.821 224.957 112.958C223.289 109.095 222.038 104.607 221.203 99.4957C220.548 95.2164 220.042 91.0558 219.684 87.0142C219.386 82.9131 219.178 79.2578 219.058 76.0483C218.939 72.3038 218.88 68.7377 218.88 65.3498V3.38785H244.262V78.9012C244.262 85.9146 244.828 91.8285 245.96 96.6428C247.092 101.398 248.612 105.261 250.519 108.233C252.485 111.145 254.779 113.255 257.4 114.563C260.082 115.811 262.942 116.435 265.98 116.435C269.138 116.435 272.415 115.87 275.812 114.741C279.208 113.552 282.574 112.007 285.911 110.105C289.307 108.203 292.555 106.034 295.653 103.597C298.811 101.16 301.701 98.6934 304.322 96.1971C307.301 93.3441 309.923 90.4615 312.187 87.5491C314.511 84.5773 316.567 81.7541 318.354 79.0795C320.142 76.3455 321.691 73.8194 323.002 71.5014C324.372 69.1834 325.564 67.1923 326.577 65.5281V3.38785H351.781L351.691 81.9324Z" fill="url(#paint1_linear_1346_45)"></path> <path d="M460.282 113.493V134.087H374.839L365.455 113.582L415.416 3.38785H441.871L391.91 113.582C403.41 113.582 413.926 113.552 423.459 113.493H460.282Z" fill="url(#paint2_linear_1346_45)"></path> <path d="M580.402 55.7212C586.122 55.0674 591.455 54.6216 596.4 54.3839C601.405 54.0867 606.142 53.9381 610.611 53.9381C622.23 53.9381 631.912 54.8296 639.658 56.6127C647.404 58.3958 653.6 60.803 658.248 63.8342C662.955 66.806 666.292 70.2533 668.258 74.176C670.224 78.0988 671.237 82.1702 671.297 86.3901C671.297 86.6279 671.297 86.8359 671.297 87.0142C671.297 91.0558 670.731 95.0975 669.599 99.1391C668.466 103.181 666.47 107.014 663.61 110.64C660.75 114.266 656.877 117.624 651.992 120.714C647.165 123.746 641.058 126.361 633.67 128.56C626.341 130.759 617.612 132.483 607.483 133.731C597.354 134.92 585.586 135.514 572.18 135.514C562.289 135.514 552.815 134.979 543.758 133.909C534.761 132.78 526.36 131.383 518.555 129.719C510.749 128.055 503.629 126.242 497.194 124.281C490.818 122.319 485.307 120.477 480.659 118.753C476.072 117.029 472.437 115.573 469.756 114.384C467.134 113.136 465.644 112.423 465.287 112.245L475.297 92.1851C475.357 92.1851 476.518 92.7201 478.783 93.7899C481.106 94.8003 484.354 96.0485 488.524 97.5344C492.695 99.0203 497.7 100.655 503.54 102.438C509.379 104.161 515.873 105.766 523.023 107.252C530.173 108.738 537.86 109.986 546.082 110.997C554.364 112.007 563.004 112.512 572.001 112.512C584.394 112.512 594.94 112.096 603.64 111.264C612.339 110.373 619.548 109.214 625.268 107.787C630.988 106.361 635.398 104.726 638.496 102.884C641.654 101.041 643.799 99.1986 644.931 97.3561C646.063 95.5135 646.629 93.7899 646.629 92.1851C646.629 91.7096 646.51 90.8478 646.272 89.5997C646.093 88.3515 645.408 86.8062 644.216 84.9637C643.203 83.3589 641.713 82.0216 639.747 80.9517C637.781 79.8225 635.427 78.9606 632.687 78.3663C630.005 77.7125 626.967 77.2667 623.57 77.029C620.174 76.7318 616.51 76.5832 612.577 76.5832C606.738 76.5832 600.422 76.8209 593.63 77.2964C586.897 77.7125 579.925 78.188 572.716 78.7229C565.506 79.2578 558.207 79.763 550.819 80.2385C543.431 80.6546 536.221 80.8626 529.19 80.8626C523.411 80.8626 517.81 80.6546 512.388 80.2385C507.025 79.8225 501.99 79.1092 497.283 78.0988C492.576 77.0884 488.286 75.7214 484.413 73.9977C480.54 72.2741 477.204 70.1047 474.403 67.4895C471.603 64.8743 469.428 61.7539 467.879 58.1283C466.389 54.5027 465.644 50.2828 465.644 45.4685C465.644 42.0212 466.181 38.5739 467.253 35.1266C468.326 31.6794 470.203 28.3807 472.884 25.2306C475.625 22.021 479.319 19.0492 483.966 16.3152C488.673 13.5217 494.632 11.0551 501.841 8.91539C509.111 6.7757 517.78 5.05205 527.85 3.74446C537.979 2.43687 549.806 1.63449 563.331 1.33731C564.94 1.33731 566.519 1.33731 568.068 1.33731C576.291 1.33731 584.543 1.75336 592.825 2.58546C601.167 3.41757 609.27 4.57657 617.135 6.06246C625.06 7.54836 632.24 9.21257 638.675 11.0551C645.169 12.8976 650.77 14.6212 655.477 16.226C660.184 17.8308 663.878 19.2275 666.56 20.4162C669.301 21.5455 670.82 22.1993 671.118 22.3776L661.644 42.2589C661.585 42.1995 660.423 41.6646 658.159 40.6542C655.954 39.5843 652.826 38.2767 648.774 36.7314C644.782 35.1861 639.926 33.5516 634.206 31.8279C628.486 30.0449 622.11 28.4401 615.08 27.0136C608.108 25.5277 600.869 24.3687 593.362 23.5366C585.854 22.7045 578.406 22.2885 571.018 22.2885C569.528 22.2885 568.039 22.3182 566.549 22.3776C554.93 22.6154 544.89 23.1503 536.43 23.9824C527.969 24.7551 520.819 25.7655 514.98 27.0136C509.14 28.2618 504.463 29.6882 500.948 31.293C497.432 32.8978 494.811 34.6214 493.083 36.4639C491.355 38.247 490.431 39.7329 490.312 40.9216C490.193 42.1104 490.133 42.9127 490.133 43.3288C490.133 44.8741 490.431 46.4492 491.027 48.0539C491.861 50.1936 493.381 51.9767 495.585 53.4032C497.79 54.8296 500.501 55.9886 503.718 56.8802C506.995 57.7717 510.749 58.4255 514.98 58.8416C519.27 59.1982 523.887 59.3765 528.833 59.3765C536.4 59.3765 544.563 59.0199 553.321 58.3066C562.08 57.5934 571.107 56.7316 580.402 55.7212Z" fill="url(#paint3_linear_1346_45)"></path> <path d="M819.391 107.074C815.101 112.482 810.394 117.118 805.27 120.982C800.205 124.786 794.962 127.906 789.54 130.343C784.118 132.78 778.636 134.563 773.095 135.692C767.554 136.822 762.191 137.386 757.007 137.386C748.189 137.386 740.324 136.257 733.412 133.998C726.501 131.74 720.423 128.857 715.18 125.35C709.936 121.844 705.468 117.98 701.774 113.76C698.079 109.54 695.041 105.469 692.657 101.546C690.274 97.5641 688.457 94.0276 687.205 90.937C685.954 87.8463 685.18 85.6769 684.882 84.4287C681.664 84.3693 679.46 84.3396 678.268 84.3396C677.076 84.2802 676.302 84.2207 675.944 84.1613L676.48 63.4776C676.54 63.4776 676.659 63.4776 676.838 63.4776C677.076 63.4776 677.434 63.5073 677.91 63.5667C678.447 63.5667 679.162 63.5964 680.055 63.6559C681.009 63.6559 682.2 63.6559 683.63 63.6559C684.286 58.4255 685.626 53.2546 687.652 48.1431C689.678 43.0316 692.33 38.1579 695.607 33.5219C698.943 28.8859 702.846 24.5768 707.315 20.5945C711.784 16.6123 716.729 13.1353 722.151 10.1635C727.573 7.19175 733.442 4.84403 739.758 3.12039C746.074 1.33731 752.747 0.356616 759.778 0.178308C760.553 0.178308 761.327 0.178308 762.102 0.178308C767.166 0.178308 772.171 0.742949 777.117 1.87223C782.062 2.94208 786.799 4.57657 791.327 6.7757C795.856 8.91539 799.937 11.4711 803.572 14.4429C807.266 17.3553 810.394 20.5054 812.956 23.8932C815.518 27.2811 817.485 30.8175 818.855 34.5026C820.285 38.1281 821 41.6943 821 45.201C821 50.9663 820.076 55.9292 818.229 60.0897C816.382 64.1908 813.969 67.6381 810.99 70.4316C808.07 73.2251 804.764 75.4539 801.069 77.1181C797.375 78.7823 793.651 80.0899 789.897 81.0409C786.203 81.9324 782.688 82.5268 779.351 82.824C776.015 83.1211 773.214 83.3292 770.95 83.448L768.626 83.5372C764.992 83.6561 760.791 83.8047 756.024 83.983C751.317 84.1018 746.342 84.2504 741.099 84.4287C735.855 84.5476 731.178 84.6368 727.067 84.6962C723.015 84.6962 719.678 84.6962 717.057 84.6962C714.435 84.6962 711.843 84.6962 709.281 84.6962C711.188 89.4511 713.929 93.7602 717.504 97.6235C721.138 101.487 725.22 104.815 729.748 107.609C734.336 110.343 739.192 112.453 744.316 113.939C749.44 115.425 754.505 116.168 759.51 116.168C763.383 116.168 767.256 115.722 771.129 114.83C775.061 113.939 778.934 112.572 782.747 110.729C786.561 108.827 790.255 106.39 793.83 103.419C797.405 100.387 800.801 96.7914 804.019 92.6309L819.391 107.074ZM791.238 32.8978C786.948 28.7373 782.211 25.706 777.027 23.8041C771.903 21.9021 766.541 20.9512 760.94 20.9512C754.922 20.9512 748.934 21.9913 742.975 24.0716C737.077 26.1518 731.655 29.0939 726.709 32.8978C721.823 36.6423 717.623 41.1594 714.107 46.4492C710.651 51.6795 708.328 57.5043 707.136 63.9233C710.532 63.9828 713.929 64.0125 717.325 64.0125C719.053 64.0125 721.615 64.0125 725.011 64.0125C728.467 63.9531 732.638 63.8936 737.524 63.8342C742.469 63.7153 747.146 63.5964 751.555 63.4776C755.965 63.2993 759.957 63.0912 763.532 62.8535L764.872 62.7643C770.89 62.3483 775.955 61.7242 780.066 60.8921C784.177 60.06 787.484 58.9604 789.987 57.5934C792.489 56.167 794.277 54.4433 795.349 52.4225C796.481 50.3422 797.047 47.9351 797.047 45.201C797.047 40.8028 795.111 36.7017 791.238 32.8978Z" fill="url(#paint4_linear_1346_45)"></path> <defs> <linearGradient id="paint0_linear_1346_45" x1="2.29202e-07" y1="9.31356" x2="876.902" y2="187.08" gradientUnits="userSpaceOnUse"> <stop stop-color="#FF006B"></stop> <stop offset="0.504808" stop-color="#E60092"></stop> <stop offset="1" stop-color="#FF0963"></stop> </linearGradient> <linearGradient id="paint1_linear_1346_45" x1="2.29202e-07" y1="9.31356" x2="876.902" y2="187.08" gradientUnits="userSpaceOnUse"> <stop stop-color="#FF006B"></stop> <stop offset="0.504808" stop-color="#E60092"></stop> <stop offset="1" stop-color="#FF0963"></stop> </linearGradient> <linearGradient id="paint2_linear_1346_45" x1="2.29202e-07" y1="9.31356" x2="876.902" y2="187.08" gradientUnits="userSpaceOnUse"> <stop stop-color="#FF006B"></stop> <stop offset="0.504808" stop-color="#E60092"></stop> <stop offset="1" stop-color="#FF0963"></stop> </linearGradient> <linearGradient id="paint3_linear_1346_45" x1="2.29202e-07" y1="9.31356" x2="876.902" y2="187.08" gradientUnits="userSpaceOnUse"> <stop stop-color="#FF006B"></stop> <stop offset="0.504808" stop-color="#E60092"></stop> <stop offset="1" stop-color="#FF0963"></stop> </linearGradient> <linearGradient id="paint4_linear_1346_45" x1="2.29202e-07" y1="9.31356" x2="876.902" y2="187.08" gradientUnits="userSpaceOnUse"> <stop stop-color="#FF006B"></stop> <stop offset="0.504808" stop-color="#E60092"></stop> <stop offset="1" stop-color="#FF0963"></stop> </linearGradient> </defs>
</svg>
