<svg viewBox="0 0 452 100" fill="none" xmlns="http://www.w3.org/2000/svg"> <path d="M0 47.5411C0 25.1301 0 13.9246 6.96222 6.96234C13.9244 0.00012207 25.1299 0.00012207 47.541 0.00012207H52.459C74.87 0.00012207 86.0756 0.00012207 93.0378 6.96234C100 13.9246 100 25.1301 100 47.5411V52.4591C100 74.8702 100 86.0757 93.0378 93.0379C86.0756 100 74.87 100 52.459 100H47.541C25.1299 100 13.9244 100 6.96222 93.0379C0 86.0757 0 74.8702 0 52.4591V47.5411Z" fill="#0077FF"/> <path d="M22.121 0.78514C28.5024 0.000124037 36.714 0.00012207 47.541 0.00012207H52.459C63.286 0.00012207 71.4976 0.000124276 77.879 0.785141C78.293 1.40573 78.5 2.02077 78.5 2.66503C78.5 5.43792 74.6655 7.66936 66.9964 12.1323L66.2686 12.5558C58.5995 17.0187 54.7649 19.2501 50 19.2501C45.235 19.2501 41.4005 17.0187 33.7314 12.5558L33.0036 12.1323C25.3345 7.66937 21.5 5.43792 21.5 2.66503C21.5 2.02077 21.707 1.40573 22.121 0.78514Z" fill="#00D3E6"/> <path d="M28.1906 21.1338C35.9473 25.6121 39.8257 27.8513 42.2354 32.025C44.6451 36.1988 44.6451 40.6771 44.6451 49.6338V50.4838C44.6451 59.4405 44.6451 63.9188 42.2354 65.3101C39.8257 66.7013 35.9473 64.4621 28.1906 59.9838L27.4545 59.5588C19.6978 55.0805 15.8194 52.8413 13.4097 48.6676C11 44.4938 11 40.0155 11 31.0588V30.2088C11 21.2521 11 16.7738 13.4097 15.3825C15.8194 13.9913 19.6978 16.2305 27.4545 20.7088L28.1906 21.1338Z" fill="#00D3E6"/> <path d="M71.81 21.5981C64.0532 26.0765 60.1749 28.3157 57.7652 32.4894C55.3555 36.6631 55.3555 41.1415 55.3555 50.0981V50.9481C55.3555 59.9048 55.3555 64.3832 57.7652 65.7744C60.1749 67.1657 64.0532 64.9265 71.81 60.4481L72.5461 60.0232C80.3028 55.5448 84.1812 53.3056 86.5909 49.1319C89.0006 44.9582 89.0006 40.4798 89.0006 31.5231V30.6732C89.0006 21.7165 89.0006 17.2381 86.5909 15.8469C84.1812 14.4556 80.3028 16.6948 72.5461 21.1731L71.81 21.5981Z" fill="white"/> <path d="M163.34 75.6554H150.816L132.995 25.1989H142.227L156.47 66.7808H157.901L172.645 25.1989H181.734L163.34 75.6554Z" fill="white"/> <path d="M205.579 49.5325L228.767 75.6554H217.459L198.565 54.0414H196.418V75.6554H187.83V25.1989H196.418V45.7393H198.493L216.386 25.1989H226.978L205.579 49.5325Z" fill="white"/> <path d="M271.524 76.3711C266.753 76.3711 262.483 75.2737 258.714 73.0789C254.944 70.8364 251.986 67.7589 249.839 63.8464C247.74 59.8862 246.69 55.4012 246.69 50.3914C246.69 45.4292 247.74 40.9919 249.839 37.0794C251.986 33.1193 254.944 30.0418 258.714 27.847C262.483 25.6045 266.753 24.4832 271.524 24.4832C276.725 24.4832 281.33 25.7953 285.337 28.4195C289.345 30.996 292.208 34.5506 293.926 39.0834L285.409 40.5148C284.216 37.9383 282.403 35.9343 279.97 34.5029C277.584 33.0715 274.864 32.3558 271.811 32.3558C268.662 32.3558 265.847 33.1193 263.366 34.6461C260.932 36.1729 259.024 38.2961 257.64 41.0158C256.304 43.7354 255.636 46.8606 255.636 50.3914C255.636 53.9221 256.304 57.0712 257.64 59.8385C259.024 62.5582 260.932 64.6814 263.366 66.2082C265.847 67.735 268.662 68.4984 271.811 68.4984C274.912 68.4984 277.703 67.7589 280.184 66.2798C282.665 64.753 284.526 62.6536 285.767 59.9817L294.284 61.4131C292.471 65.9935 289.512 69.6436 285.409 72.3632C281.353 75.0351 276.725 76.3711 271.524 76.3711Z" fill="white"/> <path d="M309.347 75.6554H301.116V25.1989H309.347V75.6554Z" fill="white"/> <path d="M336.749 76.3711C332.932 76.3711 329.497 75.56 326.443 73.9377C323.438 72.2678 321.076 69.9775 319.358 67.0671C317.688 64.1088 316.853 60.7689 316.853 57.0473C316.853 53.3257 317.688 50.0097 319.358 47.0992C321.076 44.141 323.438 41.8507 326.443 40.2285C329.497 38.5585 332.932 37.7236 336.749 37.7236C340.567 37.7236 343.978 38.5585 346.984 40.2285C350.038 41.8507 352.399 44.141 354.069 47.0992C355.787 50.0097 356.646 53.3257 356.646 57.0473C356.646 60.7689 355.787 64.1088 354.069 67.0671C352.399 69.9775 350.038 72.2678 346.984 73.9377C343.978 75.56 340.567 76.3711 336.749 76.3711ZM336.749 68.8563C340.089 68.8563 342.809 67.7827 344.908 65.6357C347.008 63.4409 348.057 60.5781 348.057 57.0473C348.057 53.5166 347.008 50.6776 344.908 48.5306C342.809 46.3358 340.089 45.2384 336.749 45.2384C333.41 45.2384 330.69 46.3358 328.591 48.5306C326.491 50.6776 325.441 53.5166 325.441 57.0473C325.441 60.5781 326.491 63.4409 328.591 65.6357C330.69 67.7827 333.41 68.8563 336.749 68.8563Z" fill="white"/> <path d="M377.399 76.3711C374.775 76.3711 372.389 75.7031 370.242 74.3671C368.143 73.0312 366.473 71.1942 365.232 68.8563C364.04 66.5184 363.443 63.8703 363.443 60.9121V38.4393H371.674V59.9817C371.674 62.6536 372.413 64.8245 373.892 66.4945C375.419 68.1645 377.352 68.9994 379.69 68.9994C382.075 68.9994 384.055 68.1645 385.63 66.4945C387.204 64.7768 387.992 62.6059 387.992 59.9817V38.4393H396.222V75.6554H390.067L388.421 70.073C387.228 72.0292 385.654 73.5799 383.697 74.725C381.741 75.8224 379.642 76.3711 377.399 76.3711Z" fill="white"/> <path d="M421.558 76.3711C418.075 76.3711 414.95 75.56 412.183 73.9377C409.415 72.2678 407.244 69.9775 405.67 67.0671C404.143 64.1088 403.38 60.7689 403.38 57.0473C403.38 53.3257 404.143 50.0097 405.67 47.0992C407.244 44.141 409.415 41.8507 412.183 40.2285C414.95 38.5585 418.075 37.7236 421.558 37.7236C424.564 37.7236 427.236 38.3438 429.574 39.5844C431.912 40.7772 433.82 42.2801 435.3 44.0932V25.1989H443.53V75.6554H437.375L435.657 69.6436C434.131 71.5044 432.174 73.1028 429.789 74.4387C427.403 75.727 424.66 76.3711 421.558 76.3711ZM423.562 68.9994C427.045 68.9994 429.86 67.902 432.007 65.7072C434.202 63.4647 435.3 60.5781 435.3 57.0473C435.3 53.5166 434.202 50.6538 432.007 48.459C429.86 46.2165 427.045 45.0952 423.562 45.0952C420.127 45.0952 417.336 46.2165 415.189 48.459C413.041 50.6538 411.968 53.5166 411.968 57.0473C411.968 60.5781 413.041 63.4647 415.189 65.7072C417.336 67.902 420.127 68.9994 423.562 68.9994Z" fill="white"/> </svg>